<?xml version="1.0" encoding="iso-8859-1"?>
<!-- Generator: Adobe Illustrator 19.0.0, SVG Export Plug-In . SVG Version: 6.00 Build 0)  -->
<svg xmlns="http://www.w3.org/2000/svg" xmlns:xlink="http://www.w3.org/1999/xlink" version="1.1" id="Capa_1" x="0px" y="0px" viewBox="0 0 511.999 511.999" style="enable-background:new 0 0 511.999 511.999;" xml:space="preserve" width="512px" height="512px">
<g>
	<g>
		<path d="M173.528,38.712c-4.191,0-7.589,3.398-7.589,7.589v20.111c0,4.19,3.398,7.588,7.589,7.588    c4.191,0,7.589-3.398,7.589-7.589v-20.11C181.117,42.11,177.719,38.712,173.528,38.712z" fill="#FFFFFF"/>
	</g>
</g>
<g>
	<g>
		<path d="M173.528,92.855c-4.191,0-7.589,3.398-7.589,7.589v20.111c0,4.19,3.398,7.588,7.589,7.588    c4.191,0,7.589-3.398,7.589-7.589v-20.11C181.117,96.253,177.719,92.855,173.528,92.855z" fill="#FFFFFF"/>
	</g>
</g>
<g>
	<g>
		<path d="M210.655,75.838h-20.111c-4.191,0-7.589,3.398-7.589,7.589s3.397,7.589,7.589,7.589h20.111    c4.191,0,7.589-3.398,7.589-7.589S214.846,75.838,210.655,75.838z" fill="#FFFFFF"/>
	</g>
</g>
<g>
	<g>
		<path d="M156.511,75.838H136.4c-4.191,0-7.589,3.398-7.589,7.589s3.398,7.589,7.589,7.589h20.111c4.191,0,7.589-3.398,7.589-7.589    S160.702,75.838,156.511,75.838z" fill="#FFFFFF"/>
	</g>
</g>
<g>
	<g>
		<path d="M309.418,60.364c-1.417-1.406-3.37-2.216-5.363-2.216c-2.003,0-3.956,0.809-5.373,2.216    c-1.406,1.417-2.216,3.37-2.216,5.363c0,0.496,0.051,1.002,0.142,1.487c0.101,0.486,0.243,0.961,0.435,1.417    c0.192,0.466,0.425,0.901,0.698,1.315c0.273,0.415,0.597,0.799,0.941,1.154c1.417,1.406,3.37,2.226,5.373,2.226    c1.993,0,3.946-0.82,5.363-2.226c0.354-0.354,0.668-0.739,0.941-1.154c0.273-0.415,0.506-0.85,0.698-1.315    c0.192-0.455,0.334-0.931,0.435-1.417c0.101-0.486,0.152-0.992,0.152-1.487C311.644,63.734,310.835,61.781,309.418,60.364z" fill="#FFFFFF"/>
	</g>
</g>
<g>
	<g>
		<path d="M382.347,389.196c-2.784,2.468-3.356,6.788-1.269,9.879c1.743,2.648,5.087,3.913,8.154,3.149    c2.953-0.736,5.203-3.239,5.663-6.242C395.948,389.111,387.517,384.613,382.347,389.196z" fill="#FFFFFF"/>
	</g>
</g>
<g>
	<g>
		<path d="M406.975,437.479c-3.061,2.395-3.788,6.942-1.612,10.166c3.612,5.487,12.254,3.785,13.71-2.543    C420.648,438.255,412.456,433.189,406.975,437.479z" fill="#FFFFFF"/>
	</g>
</g>
<g>
	<g>
		<path d="M335.008,354.229c-3.782-5.744-13.018-3.531-13.834,3.282c-0.816,6.804,7.418,11.149,12.565,6.596    C336.53,361.64,337.095,357.326,335.008,354.229z" fill="#FFFFFF"/>
	</g>
</g>
<g>
	<g>
		<path d="M215.608,309.707c-3.594-5.459-12.222-3.809-13.694,2.499c-0.693,2.97,0.523,6.16,3.017,7.915    c2.866,2.017,6.867,1.767,9.468-0.58C217.147,317.064,217.68,312.781,215.608,309.707z" fill="#FFFFFF"/>
	</g>
</g>
<g>
	<g>
		<path d="M88.113,441.25c-3.68-5.591-12.649-3.673-13.782,2.915c-0.547,3.182,1.039,6.477,3.901,7.988    c2.816,1.486,6.298,1.051,8.669-1.068C89.656,448.62,90.177,444.312,88.113,441.25z" fill="#FFFFFF"/>
	</g>
</g>
<g>
	<g>
		<path d="M368.087,438.508c-1.169-2.817-4.015-4.716-7.074-4.681c-3.57,0.042-6.65,2.624-7.376,6.108    c-1.276,6.817,6.828,11.814,12.256,7.341C368.442,445.174,369.355,441.565,368.087,438.508z" fill="#FFFFFF"/>
	</g>
</g>
<g>
	<g>
		<path d="M179.181,437.202c-1.702-2.585-4.959-3.87-7.972-3.188c-3.284,0.744-5.75,3.654-5.911,7.026    c-0.323,6.771,8.129,10.537,12.943,5.735C180.764,444.257,181.181,440.169,179.181,437.202z" fill="#FFFFFF"/>
	</g>
</g>
<g>
	<g>
		<path d="M124.515,434.871c-3.212,1.875-4.624,6.004-3.172,9.445c1.159,2.746,3.835,4.608,6.825,4.68    c3.18,0.077,6.109-1.895,7.256-4.854C137.972,437.572,130.576,431.336,124.515,434.871z" fill="#FFFFFF"/>
	</g>
</g>
<g>
	<g>
		<path d="M133.585,400.759c-0.947-3.093-3.827-5.299-7.069-5.382c-3.237-0.083-6.242,1.985-7.332,5.031    c-1.167,3.259,0.09,6.926,2.927,8.867c2.755,1.813,6.473,1.654,9.028-0.45C133.486,406.891,134.478,403.673,133.585,400.759z" fill="#FFFFFF"/>
	</g>
</g>
<g>
	<g>
		<path d="M76.244,111.301c-0.101-0.486-0.243-0.961-0.435-1.427c-0.182-0.455-0.425-0.89-0.698-1.305    c-0.273-0.415-0.587-0.81-0.941-1.154c-0.344-0.354-0.739-0.668-1.154-0.941s-0.85-0.516-1.305-0.698    c-0.465-0.192-0.941-0.334-1.427-0.435c-2.459-0.496-5.08,0.314-6.85,2.074c-0.344,0.344-0.658,0.739-0.941,1.154    c-0.273,0.415-0.506,0.85-0.698,1.305c-0.182,0.465-0.334,0.941-0.425,1.427c-0.101,0.486-0.152,0.982-0.152,1.477    s0.051,1.002,0.152,1.487c0.091,0.486,0.243,0.961,0.425,1.417c0.192,0.455,0.425,0.901,0.698,1.315    c0.283,0.415,0.597,0.799,0.941,1.154c1.417,1.406,3.37,2.216,5.373,2.216c0.496,0,0.992-0.051,1.477-0.142    c0.486-0.101,0.961-0.243,1.427-0.435c0.455-0.192,0.89-0.425,1.305-0.698s0.81-0.597,1.154-0.941    c0.354-0.354,0.668-0.739,0.941-1.154c0.273-0.415,0.516-0.86,0.698-1.315c0.192-0.455,0.334-0.931,0.435-1.417    c0.101-0.486,0.152-0.992,0.152-1.487S76.345,111.787,76.244,111.301z" fill="#FFFFFF"/>
	</g>
</g>
<g>
	<g>
		<path d="M184.769,221.405l-19.351-3.923c-16.117-3.267-28.642-15.792-31.909-31.91l-3.923-19.351    c-1.544-7.614-8.049-12.933-15.818-12.933s-14.274,5.317-15.818,12.933l-3.923,19.351c-3.267,16.117-15.792,28.643-31.91,31.91    l-19.351,3.923c-7.614,1.543-12.933,8.048-12.933,15.817c0,7.769,5.318,14.274,12.933,15.818l19.351,3.923    c16.117,3.267,28.643,15.792,31.91,31.909l3.923,19.351c1.544,7.614,8.048,12.933,15.818,12.933s14.274-5.318,15.818-12.933    l3.923-19.351c3.267-16.117,15.792-28.642,31.909-31.909l19.351-3.923c7.615-1.544,12.934-8.049,12.933-15.818    C197.701,229.454,192.383,222.949,184.769,221.405z M181.753,238.166l-19.351,3.923c-22.107,4.483-39.287,21.662-43.769,43.769    l-3.923,19.351c-0.073,0.361-0.156,0.771-0.943,0.771s-0.869-0.41-0.943-0.771l-3.923-19.351    c-4.483-22.107-21.663-39.287-43.769-43.769l-19.351-3.923c-0.361-0.073-0.771-0.156-0.77-0.943    c-0.001-0.786,0.409-0.869,0.77-0.942l19.351-3.923c22.107-4.483,39.288-21.663,43.769-43.769l3.923-19.351    c0.073-0.361,0.156-0.77,0.943-0.77s0.869,0.409,0.943,0.77l3.923,19.351c4.483,22.107,21.662,39.288,43.769,43.769l19.352,3.923    c0.361,0.073,0.77,0.156,0.77,0.942S182.114,238.092,181.753,238.166z" fill="#FFFFFF"/>
	</g>
</g>
<g>
	<g>
		<path d="M482.004,104.802l-22.808-4.624c-19.53-3.959-34.709-19.138-38.668-38.668l-4.624-22.807    c-1.69-8.335-8.81-14.157-17.314-14.157c-8.505,0-15.625,5.821-17.315,14.157l-4.624,22.807    c-3.959,19.531-19.138,34.709-38.668,38.668l-22.807,4.624c-8.337,1.69-14.158,8.81-14.158,17.315    c0,8.505,5.821,15.625,14.157,17.315l22.807,4.624c19.531,3.959,34.709,19.138,38.668,38.668l4.624,22.808    c1.69,8.336,8.811,14.157,17.316,14.157c8.505,0,15.624-5.821,17.314-14.157l4.624-22.808    c3.959-19.53,19.138-34.709,38.668-38.668l22.808-4.624c8.336-1.69,14.157-8.81,14.157-17.315S490.339,106.492,482.004,104.802z     M478.988,124.557l-22.808,4.624c-25.52,5.175-45.354,25.007-50.528,50.528l-4.624,22.808c-0.268,1.324-1.089,1.994-2.44,1.994    s-2.171-0.672-2.44-1.994l-4.624-22.808c-5.175-25.52-25.008-45.354-50.528-50.528l-22.807-4.624    c-1.323-0.268-1.994-1.089-1.994-2.44s0.671-2.171,1.994-2.44l22.807-4.624c25.52-5.175,45.354-25.008,50.528-50.528l4.624-22.807    c0.268-1.324,1.089-1.995,2.44-1.994c1.35,0,2.171,0.671,2.44,1.994l4.624,22.807c5.175,25.52,25.007,45.354,50.528,50.528    l22.808,4.624c1.324,0.268,1.994,1.089,1.994,2.44S480.311,124.289,478.988,124.557z" fill="#FFFFFF"/>
	</g>
</g>
<g>
	<g>
		<path d="M509.933,474.659L369.481,325.617c-2.875-3.05-7.678-3.193-10.728-0.319c-3.051,2.875-3.192,7.677-0.319,10.728    L486.83,472.275H119.246c-4.191,0-7.589,3.398-7.589,7.589c0,4.191,3.398,7.589,7.589,7.589h385.163    c3.029,0,5.768-1.8,6.968-4.581C512.577,480.092,512.009,476.863,509.933,474.659z" fill="#FFFFFF"/>
	</g>
</g>
<g>
	<g>
		<path d="M351.124,306.137l-89.603-95.084c-1.434-1.522-3.432-2.384-5.523-2.384c-2.091,0-4.089,0.863-5.523,2.384L2.065,474.659    c-2.076,2.204-2.644,5.432-1.444,8.212s3.939,4.581,6.968,4.581H93.95c4.191,0,7.589-3.398,7.589-7.589    c0-4.191-3.399-7.588-7.59-7.588H25.167l230.831-244.952l84.079,89.222c2.875,3.05,7.676,3.192,10.728,0.319    C353.856,313.99,353.998,309.187,351.124,306.137z" fill="#FFFFFF"/>
	</g>
</g>
<g>
</g>
<g>
</g>
<g>
</g>
<g>
</g>
<g>
</g>
<g>
</g>
<g>
</g>
<g>
</g>
<g>
</g>
<g>
</g>
<g>
</g>
<g>
</g>
<g>
</g>
<g>
</g>
<g>
</g>
</svg>
