<?xml version="1.0" encoding="iso-8859-1"?>
<!-- Generator: Adobe Illustrator 19.0.0, SVG Export Plug-In . SVG Version: 6.00 Build 0)  -->
<svg xmlns="http://www.w3.org/2000/svg" xmlns:xlink="http://www.w3.org/1999/xlink" version="1.1" id="Capa_1" x="0px" y="0px" viewBox="0 0 511.998 511.998" style="enable-background:new 0 0 511.998 511.998;" xml:space="preserve" width="512px" height="512px">
<g>
	<g>
		<path d="M417.474,65.916c-3.9-3.9-10.23-3.91-14.14,0c-3.9,3.91-3.9,10.24,0,14.14c3.91,3.91,10.24,3.91,14.14,0    C421.385,76.157,421.385,69.827,417.474,65.916z" fill="#FFFFFF"/>
	</g>
</g>
<g>
	<g>
		<path d="M276.051,263.911c-3.9-3.91-10.23-3.9-14.14,0c-3.91,3.91-3.9,10.24,0,14.14c3.91,3.91,10.24,3.91,14.14,0    C279.961,274.151,279.961,267.821,276.051,263.911z" fill="#FFFFFF"/>
	</g>
</g>
<g>
	<g>
		<path d="M79.327,403.494c-3.9-3.91-10.08-4.06-13.99-0.16c-3.9,3.91-3.9,10.24,0,14.14c3.91,3.91,10.24,3.91,14.15,0    C83.387,413.574,83.237,407.394,79.327,403.494z" fill="#FFFFFF"/>
	</g>
</g>
<g>
	<g>
		<path d="M503.205,123.367c-9.405-9.405-23.22-11.097-34.148-5.868l-23.294-23.292c-3.905-3.905-10.237-3.905-14.143,0    c-3.905,3.905-3.905,10.237,0,14.143l22.089,22.089l-6.329,6.329c-2.618,2.619-5.484,4.98-8.558,7.069l-70.102-70.102    c2.084-3.066,4.446-5.931,7.071-8.556c0.05-0.05,0.099-0.101,0.148-0.151l13.334-13.912c11.613-11.703,11.586-30.672-0.082-42.341    c-11.699-11.698-30.734-11.698-42.434,0c-0.05,0.05-0.099,0.101-0.148,0.151l-13.323,13.902    c-12.98,12.994-22.906,29.073-28.7,46.489c-6.557,19.628-7.875,40.74-3.811,61.051l0.476,2.38    c-45.719-3.376-91.291,13.406-124.194,46.309s-49.684,78.474-46.308,124.194l-2.38-0.476c-20.302-4.063-41.414-2.749-61.045,3.799    c-17.426,5.809-33.496,15.73-46.481,28.698L8.952,346.588c-0.06,0.057-0.119,0.115-0.178,0.173    c-11.698,11.699-11.698,30.735,0,42.434c11.651,11.649,30.61,11.708,42.327,0.096L63,377.967c0.06-0.057,0.119-0.115,0.178-0.173    c2.626-2.626,5.487-4.984,8.559-7.068l70.099,70.099c-2.056,3.031-4.389,5.868-6.985,8.474l-4.82,4.586l-22.263-22.263    c-3.905-3.905-10.237-3.905-14.142,0s-3.905,10.237,0,14.142l23.292,23.292c-5.229,10.924-3.541,24.74,5.867,34.149    c11.597,11.596,30.517,11.814,42.339,0.094l11.89-11.324c0.058-0.055,0.115-0.111,0.172-0.167    c12.994-12.983,22.952-29.086,28.8-46.574c10.981-32.965,3.386-62.577,3.323-63.43c45.169,3.335,90.89-13.006,124.195-46.302    c32.903-32.912,49.683-78.484,46.307-124.198c21.406,4.338,42.043,3.805,63.434-3.322c17.478-5.844,33.581-15.801,46.561-28.793    l13.4-13.4C514.929,154.066,514.931,135.092,503.205,123.367z M419.2,152.495c-19.005,4.503-30.582-1.579-53.868-5.274    c-3.658-23.09-9.773-34.821-5.265-53.858L419.2,152.495z M323.561,75.644c4.833-14.526,13.111-27.924,23.94-38.744    c0.051-0.051,0.101-0.102,0.151-0.154l13.314-13.891c3.905-3.839,10.205-3.818,14.085,0.062c3.898,3.897,3.898,10.24,0,14.138    c-0.05,0.05-0.099,0.101-0.148,0.151l-13.33,13.907c-8.698,8.722-15.204,19.363-19.049,30.864    c-9.123,27.395-0.21,47.108,1.354,59.959c-7.073-2.572-14.308-4.64-21.63-6.188C321.788,130.893,313.197,106.664,323.561,75.644z     M91.36,362.064c8.275-1.956,16.904-2.125,25.248-0.454l28.613,5.724c3.679,23.186,9.774,34.88,5.28,53.87L91.36,362.064z     M187.016,438.903c-4.853,14.515-13.11,27.887-23.882,38.675l-11.881,11.315c-0.059,0.056-0.117,0.113-0.175,0.17    c-3.907,3.908-10.24,3.908-14.147,0c-3.883-3.882-3.908-10.152-0.073-14.065l11.875-11.3c0.06-0.057,0.119-0.115,0.178-0.173    c9.173-9.174,15.549-20.218,19.137-30.955c9.092-27.324,0.223-46.87-1.373-59.95c7.074,2.572,14.312,4.642,21.64,6.191    C188.774,383.658,197.354,407.872,187.016,438.903z M319.361,321.361c-39.121,39.111-98.456,52.17-151.449,30.309    c-1.51-0.622-47.262-9.647-47.38-9.671c-13.459-2.696-27.478-1.826-40.557,2.521c-10.768,3.601-21.75,9.973-30.85,19.042    L37.231,374.88c-0.06,0.057-0.119,0.115-0.177,0.173c-3.907,3.907-10.23,3.909-14.138,0c-3.882-3.883-3.907-10.162-0.072-14.075    l11.875-11.3c0.061-0.058,0.121-0.117,0.18-0.176c10.816-10.825,24.216-19.107,38.751-23.953    c16.336-5.448,33.9-6.542,50.796-3.161l47.515,9.503c3.338,0.661,45.655,22.832,96.847,0.281    c13.575-6.418,24.455-13.009,36.404-24.959c28.021-28.02,39.685-66.911,33.306-104.153c1.563,0.313,13.115,2.585,20.803,4.119    C364.146,248.983,349.485,291.229,319.361,321.361z M247.773,235.628l-20.863-20.863c5.295-4.343,10.995-8.093,17.041-11.244    l65.082,65.083c-4.668,8.964-10.676,17.18-17.962,24.467c-7.273,7.273-15.489,13.279-24.469,17.959l-65.08-65.08    c3.15-6.045,6.901-11.745,11.244-17.041l20.863,20.863c3.905,3.905,10.237,3.905,14.143,0    C251.678,245.866,251.678,239.534,247.773,235.628z M264.305,195.591c8.173-2.168,16.592-3.262,25.167-3.262    c9.131,0,18.181,1.275,26.989,3.771c4.856,17.149,4.981,35.11,0.477,52.123L264.305,195.591z M246.227,318.939    c-17.009,4.506-34.976,4.38-52.14-0.481c-4.852-17.151-4.974-35.116-0.471-52.129L246.227,318.939z M489.066,151.647    l-13.402,13.403c-10.803,10.812-24.206,19.099-38.748,23.961c-16.356,5.449-33.925,6.541-50.781,3.168    c-47.119-9.568-47.525-9.276-49.492-10.122c-14.396-6.17-30.443-9.729-47.17-9.729c-31.655,0-61.747,12.624-84.133,35.01    c-27.662,27.663-39.777,66.379-33.308,104.17l-20.794-4.159c-4.815-41.802,9.846-84.033,39.964-114.148    c39.074-39.074,98.399-52.191,151.448-30.308c1.697,0.7-0.842-0.043,47.372,9.659c13.469,2.71,27.497,1.84,40.574-2.52    c11.377-3.802,22.105-10.298,30.932-19.123l13.4-13.399c3.906-3.907,10.23-3.908,14.138,0    C492.973,141.417,492.974,147.74,489.066,151.647z" fill="#FFFFFF"/>
	</g>
</g>
<g>
</g>
<g>
</g>
<g>
</g>
<g>
</g>
<g>
</g>
<g>
</g>
<g>
</g>
<g>
</g>
<g>
</g>
<g>
</g>
<g>
</g>
<g>
</g>
<g>
</g>
<g>
</g>
<g>
</g>
</svg>
