<?xml version="1.0" encoding="iso-8859-1"?>
<!-- Generator: Adobe Illustrator 19.0.0, SVG Export Plug-In . SVG Version: 6.00 Build 0)  -->
<svg xmlns="http://www.w3.org/2000/svg" xmlns:xlink="http://www.w3.org/1999/xlink" version="1.1" id="Capa_1" x="0px" y="0px" viewBox="0 0 512 512" style="enable-background:new 0 0 512 512;" xml:space="preserve" width="512px" height="512px">
<g>
	<g>
		<path d="M421.036,186.356c-0.008-0.004-0.016-0.009-0.025-0.014c-0.001,0-0.001,0-0.001,0c-0.244-0.138-1.158-0.647-2.623-1.365    c-5.028-2.486-16.7-7.642-30.375-9.557c-25.157-3.524-44.637,5.379-56.347,25.743c-14.94,25.984-10.35,57.877-4.537,98.256    c4.008,27.842,8.55,59.399,8.55,97.538c0,3.498-0.263,6.922-0.78,10.178c-0.65,4.091,2.139,7.935,6.229,8.585    c4.092,0.649,7.935-2.14,8.585-6.229c0.641-4.032,0.966-8.249,0.966-12.533c0-39.212-4.624-71.335-8.703-99.676    c-3.976-27.618-7.169-49.81-4.298-68.043c-0.103,16.495,4.504,37.204,9.938,61.632c6.767,30.42,15.188,68.277,16.794,109.717    c0.979,25.251-9.22,50.403-27.979,69.009c-18.996,18.839-43.872,28.54-70.081,27.301c-24.93-1.173-48.167-12.196-65.43-31.038    c-17.151-18.722-26.598-43.051-26.598-68.505V239.971c0-10.106,3.752-19.789,10.564-27.265    c8.695-9.542,13.484-22.767,13.484-37.238v-4.484c0-14.786-6.482-29.104-18.252-40.317c-7.863-7.491-12.389-17.224-13.521-28.981    c2.566,0.963,5.342,1.492,8.241,1.492c12.976,0,23.532-10.557,23.532-23.533V71.63c0-12.072-9.139-22.045-20.861-23.376    C187.252,27.933,201.429,15,214.918,15c13.45,0,27.656,12.945,37.408,33.254c-11.721,1.332-20.859,11.305-20.859,23.376v8.016    c0,12.976,10.557,23.533,23.532,23.533c2.898,0,5.674-0.53,8.24-1.492c-1.132,11.758-5.658,21.491-13.52,28.981    c-11.771,11.213-18.252,25.531-18.252,40.317v4.484c0,14.472,4.789,27.696,13.484,37.237c6.813,7.477,10.564,17.16,10.564,27.265    c0,27.734-4.712,56.098-9.268,83.53c-4.514,27.168-9.18,55.262-9.18,82.496c0,15.24,5.049,29.528,14.218,40.232    c9.766,11.4,23.404,17.68,38.404,17.68c0.125,0,0.249-0.003,0.374-0.01c15.724-0.784,30.469-7.245,41.519-18.192    c2.942-2.915,2.965-7.664,0.05-10.606c-2.916-2.942-7.664-2.964-10.606-0.05c-8.377,8.3-19.565,13.217-31.523,13.858    c-24.315-0.113-37.435-22.163-37.435-42.912c0-12.558,1.023-25.176,2.595-37.997l26.323-13.271l-6.397,19.192    c-2.441,7.323-1.134,15.384,3.499,21.562l19.009,25.345c1.474,1.965,3.726,3.001,6.006,3c1.565,0,3.146-0.488,4.494-1.5    c3.313-2.485,3.985-7.187,1.5-10.5l-7.968-10.624l14.101-3.103c4.046-0.891,6.604-4.892,5.714-8.937    c-0.891-4.045-4.895-6.601-8.937-5.714l-20.766,4.569l-1.153-1.537c-1.68-2.239-2.154-5.162-1.269-7.817l12.15-36.451    c2.809-8.426,1.041-17.486-4.729-24.239c-5.769-6.752-14.438-9.911-23.206-8.451l-9.552,1.592    c3.759-23.363,7.033-47.258,7.033-71.145c0-6.178-1.029-12.239-2.991-17.969l19.183-4.453c8.978-2.083,15.947-9.27,17.755-18.308    l7.451-37.257l26.222-11.323c3.803-1.642,5.554-6.056,3.912-9.858c-1.642-3.802-6.056-5.554-9.859-3.912l-16.698,7.211    l2.977-14.887c0.813-4.062-1.822-8.013-5.884-8.825c-4.062-0.81-8.013,1.822-8.825,5.884L289.753,196.3    c-0.655,3.277-3.182,5.883-6.438,6.638l-22.792,5.291c-1.367-1.957-2.859-3.84-4.486-5.625    c-6.172-6.773-9.571-16.409-9.571-27.134v-4.484c0-10.642,4.829-21.103,13.598-29.457c12.081-11.509,18.467-27.363,18.467-45.85    V71.63c0-6.738-2.851-12.819-7.404-17.112c-5.232-14.779-12.652-27.619-21.502-37.172C239.111,5.998,227.109,0,214.918,0    c-22.535,0-44.469,21.344-56.206,54.513c-4.556,4.294-7.409,10.377-7.409,17.117v24.049c0,18.485,6.386,34.339,18.467,45.849    c8.77,8.354,13.599,18.816,13.599,29.457v4.484c0,10.724-3.399,20.361-9.572,27.134c-1.627,1.786-3.119,3.669-4.486,5.625    l-22.792-5.291c-3.255-0.755-5.781-3.361-6.437-6.638l-14.006-70.027c-0.813-4.061-4.763-6.693-8.825-5.884    c-4.062,0.813-6.696,4.764-5.884,8.825l2.978,14.887l-16.698-7.21c-3.807-1.643-8.218,0.109-9.859,3.912    c-1.641,3.803,0.109,8.217,3.912,9.858l26.222,11.323l7.452,37.258c1.808,9.038,8.777,16.224,17.754,18.307l19.183,4.453    c-1.961,5.73-2.991,11.79-2.991,17.969v72.318l-16.049-2.766c-8.758-1.457-17.434,1.699-23.204,8.452    c-5.77,6.752-7.537,15.813-4.729,24.239l12.15,36.451c0.886,2.655,0.411,5.578-1.268,7.817l-1.153,1.537l-20.766-4.569    c-4.052-0.889-8.047,1.669-8.937,5.714s1.668,8.046,5.714,8.937l14.101,3.103l-7.968,10.624c-2.485,3.313-1.813,8.015,1.5,10.5    c1.35,1.012,2.929,1.5,4.494,1.5c2.28,0,4.532-1.035,6.006-3l19.009-25.345c4.632-6.177,5.939-14.237,3.498-21.562l-6.44-19.318    l24.041,11.966v30.783c0,29.216,10.846,57.143,30.538,78.638c19.956,21.782,46.87,34.528,75.784,35.89    c1.731,0.081,3.454,0.122,5.175,0.121c28.528-0.001,55.411-11.165,76.174-31.756c21.735-21.556,33.547-50.803,32.405-80.239    c-1.658-42.794-10.242-81.385-17.14-112.394c-7.005-31.488-12.537-56.36-7.929-70.737c3.862-12.052,10.181-19.873,18.78-23.246    c15.306-6.003,34.376,2.653,39.306,5.134c0.78,0.395,1.211,0.633,1.231,0.645c3.604,2.032,8.171,0.76,10.209-2.838    C425.892,192.971,424.632,188.401,421.036,186.356z M260.913,326.751l14.588-2.431c3.575-0.6,6.981,0.642,9.336,3.399    c1.74,2.037,2.566,4.51,2.42,7.05l-30.084,15.167C258.336,342.31,259.611,334.592,260.913,326.751z M263.531,71.63v8.016    c0,4.705-3.827,8.533-8.532,8.533s-8.532-3.828-8.532-8.533V71.63c0-4.705,3.827-8.532,8.532-8.532    C259.704,63.098,263.531,66.926,263.531,71.63z M166.304,71.63c0-4.705,3.828-8.532,8.533-8.532c4.705,0,8.532,3.827,8.532,8.532    v8.016c0,4.705-3.827,8.533-8.532,8.533c-4.705,0-8.533-3.828-8.533-8.533V71.63z M159.32,349.815l-30.27-15.066    c-0.14-2.533,0.685-4.998,2.421-7.029c2.354-2.757,5.754-3.999,9.294-3.406l18.555,3.196V349.815z" fill="#FFFFFF"/>
	</g>
</g>
<g>
</g>
<g>
</g>
<g>
</g>
<g>
</g>
<g>
</g>
<g>
</g>
<g>
</g>
<g>
</g>
<g>
</g>
<g>
</g>
<g>
</g>
<g>
</g>
<g>
</g>
<g>
</g>
<g>
</g>
</svg>
