<?xml version="1.0" encoding="iso-8859-1"?>
<!-- Generator: Adobe Illustrator 19.1.0, SVG Export Plug-In . SVG Version: 6.00 Build 0)  -->
<svg xmlns="http://www.w3.org/2000/svg" xmlns:xlink="http://www.w3.org/1999/xlink" version="1.1" id="Capa_1" x="0px" y="0px" viewBox="0 0 62.536 62.536" style="enable-background:new 0 0 62.536 62.536;" xml:space="preserve" width="512px" height="512px">
<g>
	<g id="group-64svg">
		<path id="path-1_59_" d="M30.473,28.972c-5.556,0-11.825-3.273-13.301-10.582c-0.127-0.629,0.161-1.27,0.715-1.594    c0.419-0.244,10.352-5.98,17.291-5.98c4.7,0,7.288,2.584,7.288,7.277C42.466,25.236,36.432,28.972,30.473,28.972z M20.376,18.848    c1.571,5.233,6.323,7.124,10.097,7.124c4.331,0,8.993-2.466,8.993-7.879c0-2.998-1.283-4.277-4.288-4.277    C30.207,13.816,22.978,17.447,20.376,18.848z" fill="#FFFFFF"/>
		<path id="path-2_59_" d="M42.197,34.161c-0.999,0-2.001-0.164-2.991-0.492c-7.216-2.396-7.894-4.995-7.85-6    c0.037-0.828,0.747-1.475,1.565-1.434c0.75,0.034,1.346,0.611,1.425,1.334c0.104,0.218,0.946,1.638,5.805,3.253    c1.732,0.574,3.456,0.422,5.128-0.452c3.082-1.614,5.978-5.739,7.379-10.509c0.242-0.823,0.01-1.266-0.219-1.561    c-1.7-2.191-8.703-2.788-12.709-2.65c-0.85,0.016-1.522-0.62-1.551-1.448c-0.028-0.827,0.62-1.521,1.447-1.551    c1.217-0.042,11.994-0.299,15.182,3.809c0.938,1.207,1.19,2.676,0.729,4.246c-1.288,4.387-4.294,9.927-8.867,12.322    C45.23,33.781,43.718,34.161,42.197,34.161z" fill="#FFFFFF"/>
		<path id="path-3_59_" d="M50.45,40.192c-1.734,0-3.489-0.739-5.231-2.203c-3.413-2.87-4.402-4.385-3.781-5.793    c0.447-1.011,1.523-1.249,2.319-1.14c0.821,0.109,1.398,0.863,1.289,1.684c-0.037,0.267-0.14,0.507-0.291,0.707    c0.404,0.46,1.124,1.177,2.395,2.247c1.324,1.114,2.518,1.597,3.621,1.482c2.428-0.254,4.86-3.366,7.433-6.661l0.371-0.475    c1.016-1.299,0.774-2.092,0.694-2.352c-0.603-1.976-4.242-3.556-5.469-3.954c-0.787-0.256-1.219-1.101-0.965-1.888    c0.255-0.788,1.101-1.218,1.885-0.968c0.636,0.204,6.245,2.108,7.416,5.927c0.358,1.164,0.44,2.991-1.198,5.085l-0.37,0.472    c-2.978,3.811-5.79,7.411-9.484,7.797C50.873,40.182,50.662,40.192,50.45,40.192z" fill="#FFFFFF"/>
		<path id="path-4_52_" d="M57.937,44.593H46.218c-0.401,0-0.785-0.16-1.067-0.446c-1.53-1.551-3.59-5.355-0.428-8.655    c0.574-0.598,1.523-0.62,2.121-0.045c0.598,0.573,0.619,1.523,0.045,2.121c-1.476,1.541-0.6,3.203,0.019,4.025h11.029    c0.555,0,1.261-0.083,1.472-0.478c0.699-1.306-1.13-5.305-2.72-7.69c-0.46-0.689-0.273-1.621,0.416-2.08    c0.688-0.459,1.62-0.275,2.08,0.416c0.8,1.199,4.697,7.355,2.869,10.769C61.55,43.471,60.427,44.593,57.937,44.593z" fill="#FFFFFF"/>
		<path id="path-5_42_" d="M55.586,51.525c-0.337,0-0.702-0.038-1.094-0.122c-2.968-0.635-5.77-1.894-7.444-2.859    c-1.158-0.668-2.184-1.951-2.184-3.547v-1.404c0-0.828,0.672-1.5,1.5-1.5s1.5,0.672,1.5,1.5v1.404    c0,0.151,0.094,0.609,0.683,0.948c1.423,0.821,4.046,1.961,6.68,2.525c0.666,0.144,0.913-0.023,1.097-0.184    c0.911-0.796,1.137-3.398,1.022-4.906c-0.065-0.826,0.54-1.547,1.366-1.61c0.811-0.063,1.542,0.554,1.604,1.38    c0.042,0.537,0.331,5.299-2.068,7.395C57.7,51.025,56.827,51.525,55.586,51.525z" fill="#FFFFFF"/>
		<path id="path-6_30_" d="M47.077,62.324c-0.389,0-0.785-0.082-1.166-0.252c-1.197-0.535-1.851-1.761-1.624-3.053l0.808-4.623    l-2.306-0.041c-1.307-0.024-2.387-0.893-2.689-2.164c-0.3-1.272,0.275-2.534,1.432-3.141l5.942-3.116    c0.731-0.383,1.64-0.102,2.025,0.632c0.385,0.733,0.102,1.64-0.632,2.025l-5.296,2.777l3.33,0.059    c0.439,0.008,0.852,0.207,1.131,0.546c0.278,0.338,0.395,0.781,0.32,1.213l-0.982,5.619l7.025-8.939    c0.513-0.65,1.456-0.764,2.107-0.252s0.764,1.456,0.253,2.106l-7.485,9.521C48.716,61.945,47.913,62.324,47.077,62.324z" fill="#FFFFFF"/>
		<path id="path-7_19_" d="M18.639,19.628c-0.265,0-0.535-0.07-0.778-0.22c-0.107-0.065-10.694-6.688-6.368-18.221    c0.29-0.776,1.156-1.171,1.931-0.877c0.776,0.291,1.168,1.155,0.877,1.93c-3.445,9.187,4.774,14.393,5.125,14.61    c0.705,0.434,0.925,1.357,0.493,2.062C19.635,19.374,19.143,19.628,18.639,19.628z" fill="#FFFFFF"/>
		<path id="path-8_16_" d="M9.667,25.978c-2.821,0-5.973-0.861-9.114-3.42c-0.642-0.524-0.739-1.469-0.215-2.111    s1.467-0.739,2.11-0.215c7.648,6.231,15.162,0.076,15.478-0.19c0.637-0.532,1.582-0.449,2.114,0.186    c0.532,0.634,0.449,1.58-0.186,2.113C19.79,22.395,15.42,25.978,9.667,25.978z" fill="#FFFFFF"/>
		<path id="path-9_14_" d="M35.001,19.004c0,1.208-0.98,2.188-2.188,2.188c-1.209,0-2.188-0.98-2.188-2.188    c0-1.209,0.979-2.188,2.188-2.188C34.021,16.816,35.001,17.795,35.001,19.004z" fill="#FFFFFF"/>
	</g>
</g>
<g>
</g>
<g>
</g>
<g>
</g>
<g>
</g>
<g>
</g>
<g>
</g>
<g>
</g>
<g>
</g>
<g>
</g>
<g>
</g>
<g>
</g>
<g>
</g>
<g>
</g>
<g>
</g>
<g>
</g>
</svg>
