<?xml version="1.0" encoding="iso-8859-1"?>
<!-- Generator: Adobe Illustrator 19.0.0, SVG Export Plug-In . SVG Version: 6.00 Build 0)  -->
<svg xmlns="http://www.w3.org/2000/svg" xmlns:xlink="http://www.w3.org/1999/xlink" version="1.1" id="Capa_1" x="0px" y="0px" viewBox="0 0 512 512" style="enable-background:new 0 0 512 512;" xml:space="preserve" width="512px" height="512px">
<g>
	<g>
		<path d="M398.569,147.956c-3.077-35.396-32.855-63.266-69.035-63.266c-7.586,0-14.958,1.196-22.013,3.566    c-13.896-12-31.8-18.748-50.298-18.748c-25.686,0-49.46,12.775-63.69,33.785c-26.136,1.599-47.796,19.994-54.33,44.495    c-11.925,1.659-21.136,11.917-21.136,24.292v33.886c0,13.527,11.005,24.532,24.532,24.532h5.372l18.864,192.406    c0.616,6.281,5.897,11.069,12.207,11.069h178.661c6.31,0,11.591-4.788,12.207-11.069l18.864-192.406h5.372    c13.527,0,24.532-11.005,24.532-24.532V172.08C418.679,160.064,409.992,150.045,398.569,147.956z M197.239,127.713    c0.681,0,1.434,0.029,2.367,0.089c4.774,0.315,9.289-2.177,11.576-6.377c9.192-16.892,26.834-27.386,46.041-27.386    c14.574,0,28.608,6.154,38.505,16.885c3.663,3.972,9.491,5.078,14.354,2.729c6.086-2.941,12.632-4.433,19.453-4.433    c22.501,0,41.172,16.683,44.312,38.327H165.369C171.177,135.809,183.277,127.713,197.239,127.713z M346.581,409.441H190.164    L172.62,230.499h191.505L346.581,409.441z M394.147,205.967H142.599v-33.886h251.548V205.967z" fill="#FFFFFF"/>
	</g>
</g>
<g>
	<g>
		<path d="M62.103,330.978V221.643h13.15c13.527,0,24.532-11.005,24.532-24.532v-13.094c0-13.527-11.005-24.532-24.532-24.532    H24.532C11.005,159.484,0,170.489,0,184.016v13.094c0,13.527,11.005,24.532,24.532,24.532h13.039v109.392    C15.996,336.555,0,356.158,0,379.427v50.799c0,6.774,5.492,12.266,12.266,12.266h75.385c6.774,0,12.266-5.492,12.266-12.266    v-50.799C99.917,356.07,83.799,336.414,62.103,330.978z M24.532,197.111l-0.016-13.094c0,0,0.005-0.001,0.016-0.001h50.721v13.094    H24.532z M75.385,417.961H24.532v-38.533c0-14.014,11.402-25.415,25.416-25.415h0.021c14.014,0,25.416,11.401,25.416,25.415    V417.961z" fill="#FFFFFF"/>
	</g>
</g>
<g>
	<g>
		<path d="M510.815,151.56c-1.578,0-1.581,2.453,0,2.453C512.393,154.013,512.397,151.56,510.815,151.56z" fill="#FFFFFF"/>
	</g>
</g>
<g>
</g>
<g>
</g>
<g>
</g>
<g>
</g>
<g>
</g>
<g>
</g>
<g>
</g>
<g>
</g>
<g>
</g>
<g>
</g>
<g>
</g>
<g>
</g>
<g>
</g>
<g>
</g>
<g>
</g>
</svg>
