<?xml version="1.0" encoding="iso-8859-1"?>
<!-- Generator: Adobe Illustrator 19.0.0, SVG Export Plug-In . SVG Version: 6.00 Build 0)  -->
<svg xmlns="http://www.w3.org/2000/svg" xmlns:xlink="http://www.w3.org/1999/xlink" version="1.1" id="Capa_1" x="0px" y="0px" viewBox="0 0 480.006 480.006" style="enable-background:new 0 0 480.006 480.006;" xml:space="preserve" width="512px" height="512px">
<g>
	<g>
		<path d="M440.003,216h-24.336c-0.45-5.068-1.307-10.092-2.56-15.024c31.527-42.551,22.59-102.602-19.961-134.129    c-30.249-22.412-70.815-25.05-103.711-6.743c-39.674-38.376-102.947-37.323-141.323,2.351    c-17.082,17.66-27.061,40.994-28.029,65.545h-36.08c-46.392,0-84,37.608-84,84s37.608,84,84,84h356c22.091,0,40-17.909,40-40    S462.095,216,440.003,216z M407.56,108.301c11.656,23.335,11.203,50.888-1.213,73.827c-0.64-1.32-1.376-2.584-2.072-3.872    c-0.504-0.92-0.992-1.84-1.52-2.744c-0.8-1.368-1.648-2.696-2.52-4c-0.488-0.736-0.984-1.464-1.496-2.192    c-0.984-1.416-1.984-2.816-3.048-4.176l-0.328-0.392c-4.015-5.085-8.531-9.754-13.48-13.936l-0.176-0.152    c-6.694-5.644-14.128-10.346-22.096-13.976l-0.464-0.208c-1.928-0.864-3.88-1.688-5.88-2.4l-0.4-0.136    c-3.26-1.189-6.582-2.199-9.952-3.024c-1.04-0.264-2.08-0.536-3.128-0.8c-1.24-0.264-2.496-0.472-3.76-0.688    c-1.6-0.277-3.2-0.512-4.8-0.704c-1-0.12-1.992-0.24-2.992-0.328c-2.744-0.24-5.472-0.4-8.232-0.4h-0.08c0-0.12,0-0.232,0-0.352    c-0.12-2.808-0.392-5.6-0.744-8.368c-0.144-1.104-0.328-2.184-0.504-3.272c-0.288-1.76-0.616-3.512-1-5.256    c-0.272-1.248-0.552-2.496-0.864-3.728c-0.408-1.56-0.88-3.096-1.36-4.632c-0.656-2.133-1.381-4.216-2.176-6.248    c-0.584-1.504-1.144-3.008-1.8-4.48c-0.656-1.472-1.432-2.984-2.176-4.464c-0.504-1-1-1.992-1.536-2.976    c-0.8-1.512-1.696-2.992-2.6-4.456c-0.52-0.848-1.064-1.68-1.6-2.512c-1-1.52-2.016-3.032-3.096-4.496l-0.224-0.28    C339.769,52.737,387.817,68.774,407.56,108.301z M440.003,280h-356c-37.555,0-68-30.445-68-68s30.445-68,68-68h52v-12    c-0.064-46.326,37.438-83.932,83.764-83.996c23.997-0.033,46.86,10.213,62.804,28.148c1.44,1.6,2.813,3.259,4.12,4.976    c0.296,0.392,0.592,0.8,0.88,1.184c1.243,1.68,2.416,3.4,3.52,5.16c0.304,0.488,0.6,0.976,0.896,1.472    c1.024,1.704,2,3.44,2.896,5.216c0.312,0.608,0.6,1.232,0.896,1.856c0.8,1.696,1.6,3.408,2.28,5.16    c0.304,0.8,0.568,1.552,0.856,2.328c0.6,1.648,1.176,3.304,1.672,4.984c0.288,0.984,0.52,1.992,0.8,2.992    c0.384,1.52,0.8,3.04,1.08,4.584c0.264,1.376,0.44,2.784,0.64,4.184c0.176,1.216,0.392,2.4,0.512,3.656    c0.256,2.672,0.408,5.384,0.408,8.12V144h16c2.48,0,4.928,0.152,7.36,0.376c1,0.096,1.992,0.24,2.984,0.376    c1.336,0.176,2.672,0.368,4,0.608c1.328,0.24,2.584,0.504,3.856,0.8c0.872,0.2,1.728,0.44,2.592,0.664    c1.544,0.424,3.088,0.848,4.6,1.36l0.504,0.184c7.846,2.729,15.223,6.653,21.872,11.632l0.176,0.128    c1.653,1.243,3.253,2.547,4.8,3.912l0.072,0.064c4.756,4.188,9.001,8.922,12.648,14.104v0.04c0.936,1.336,1.8,2.728,2.656,4.12    c0.384,0.624,0.8,1.24,1.136,1.872c0.744,1.296,1.448,2.624,2.12,4c0.379,0.757,0.747,1.52,1.104,2.288    c0.632,1.36,1.232,2.728,1.792,4.128c0.288,0.728,0.544,1.48,0.8,2.224c0.544,1.512,1.088,3.024,1.552,4.584    c2.192,7.313,3.32,14.902,3.352,22.536v8h40c13.255,0,24,10.745,24,24S453.258,280,440.003,280z" fill="#FFFFFF"/>
	</g>
</g>
<g>
	<g>
		<rect x="328.003" width="16" height="32" fill="#FFFFFF"/>
	</g>
</g>
<g>
	<g>
		<rect x="448.003" y="136" width="32" height="16" fill="#FFFFFF"/>
	</g>
</g>
<g>
	<g>
		<rect x="411.04" y="43.99" transform="matrix(0.7071 -0.7071 0.7071 0.7071 88.5992 317.8777)" width="33.944" height="16" fill="#FFFFFF"/>
	</g>
</g>
<g>
	<g>
		<path d="M301.204,353.921c-1.449-1.24-3.294-1.921-5.201-1.921h-33.872l16.728-27.88c2.275-3.787,1.05-8.702-2.738-10.978    c-1.244-0.747-2.667-1.142-4.118-1.142h-48c-2.758,0-5.322,1.421-6.784,3.76l-40,64c-2.342,3.747-1.203,8.682,2.544,11.024    c1.271,0.795,2.741,1.216,4.24,1.216h36.576l-28.096,77.264c-1.514,4.151,0.623,8.743,4.773,10.257    c3.138,1.145,6.658,0.219,8.827-2.321l96-112C304.955,361.842,304.561,356.792,301.204,353.921z M222.547,433.4l16.976-46.664    c1.511-4.152-0.63-8.743-4.782-10.254c-0.878-0.319-1.804-0.483-2.738-0.482h-33.6l30-48h29.44l-16.728,27.88    c-2.275,3.787-1.05,8.702,2.737,10.978c1.253,0.753,2.689,1.148,4.151,1.142h30.608L222.547,433.4z" fill="#FFFFFF"/>
	</g>
</g>
<g>
	<g>
		<path d="M119.035,331.72l-17.376-17.376c-3.174-3.001-8.138-3.001-11.312,0L72.979,331.72    c-11.96,11.959-11.962,31.349-0.003,43.309c5.744,5.745,13.535,8.972,21.659,8.971h2.744    c16.913,0.002,30.625-13.708,30.627-30.621C128.007,345.255,124.78,337.464,119.035,331.72z M107.702,363.725    c-2.742,2.737-6.457,4.274-10.331,4.275h-2.744c-8.081-0.007-14.626-6.564-14.619-14.645c0.003-3.871,1.541-7.583,4.275-10.323    l11.72-11.72l11.72,11.72C113.432,348.752,113.422,358.016,107.702,363.725z" fill="#FFFFFF"/>
	</g>
</g>
<g>
	<g>
		<path d="M407.035,323.72l-17.376-17.376c-3.174-3.001-8.138-3.001-11.312,0l-17.368,17.376    c-11.96,11.959-11.962,31.349-0.003,43.309c5.744,5.745,13.535,8.972,21.659,8.971h2.744    c16.913,0.002,30.625-13.708,30.627-30.621C416.007,337.255,412.78,329.464,407.035,323.72z M395.702,355.725    c-2.742,2.737-6.457,4.274-10.331,4.275h-2.744c-8.081-0.007-14.626-6.564-14.619-14.645c0.003-3.871,1.541-7.583,4.275-10.323    l11.72-11.72l11.72,11.72C401.432,340.752,401.422,350.016,395.702,355.725z" fill="#FFFFFF"/>
	</g>
</g>
<g>
	<g>
		<path d="M87.035,419.72l-17.376-17.376c-3.174-3.001-8.138-3.001-11.312,0L40.979,419.72    c-11.96,11.959-11.962,31.349-0.003,43.309c5.744,5.745,13.535,8.972,21.659,8.971h2.744    c16.913,0.002,30.625-13.708,30.627-30.621C96.007,433.255,92.78,425.464,87.035,419.72z M75.702,451.725    c-2.742,2.737-6.457,4.274-10.331,4.275h-2.736c-8.081-0.007-14.626-6.564-14.619-14.645c0.003-3.871,1.541-7.583,4.275-10.323    l11.712-11.72l11.72,11.72C81.432,436.752,81.422,446.016,75.702,451.725z" fill="#FFFFFF"/>
	</g>
</g>
<g>
	<g>
		<path d="M375.035,427.72l-17.376-17.376c-3.174-3.001-8.138-3.001-11.312,0l-17.368,17.376    c-11.96,11.959-11.962,31.349-0.003,43.309c5.744,5.745,13.535,8.972,21.659,8.971h2.744    c16.913,0.002,30.625-13.708,30.627-30.621C384.007,441.255,380.78,433.464,375.035,427.72z M363.702,459.725    c-2.742,2.737-6.457,4.274-10.331,4.275h-2.744c-8.081-0.007-14.626-6.564-14.619-14.645c0.003-3.871,1.541-7.583,4.275-10.323    l11.72-11.72l11.72,11.72C369.432,444.752,369.422,454.016,363.702,459.725z" fill="#FFFFFF"/>
	</g>
</g>
<g>
</g>
<g>
</g>
<g>
</g>
<g>
</g>
<g>
</g>
<g>
</g>
<g>
</g>
<g>
</g>
<g>
</g>
<g>
</g>
<g>
</g>
<g>
</g>
<g>
</g>
<g>
</g>
<g>
</g>
</svg>
