<?xml version="1.0" encoding="iso-8859-1"?>
<!-- Generator: Adobe Illustrator 19.0.0, SVG Export Plug-In . SVG Version: 6.00 Build 0)  -->
<svg xmlns="http://www.w3.org/2000/svg" xmlns:xlink="http://www.w3.org/1999/xlink" version="1.1" id="Layer_1" x="0px" y="0px" viewBox="0 0 512 512" style="enable-background:new 0 0 512 512;" xml:space="preserve" width="512px" height="512px">
<g>
	<g>
		<circle cx="163.826" cy="286.692" r="17.247" fill="#FFFFFF"/>
	</g>
</g>
<g>
	<g>
		<circle cx="348.174" cy="286.692" r="17.247" fill="#FFFFFF"/>
	</g>
</g>
<g>
	<g>
		<path d="M452.601,150.666C428.791,61.956,347.946,0,256,0S83.209,61.956,59.413,150.614l-0.179,0.658    c-4.506,16.983-6.791,34.574-6.791,52.286v259.45c0,27.015,21.977,48.992,48.992,48.992c15.688,0,29.668-7.422,38.641-18.929    C149.049,504.578,163.029,512,178.717,512c15.683,0,29.668-7.407,38.641-18.907C226.332,504.593,240.317,512,256,512    s29.668-7.407,38.641-18.907C303.615,504.593,317.6,512,333.283,512c15.688,0,29.668-7.422,38.641-18.929    C380.898,504.578,394.878,512,410.566,512c27.015,0,48.992-21.977,48.992-48.992v-259.45    C459.558,185.66,457.217,167.864,452.601,150.666z M361.574,463.008c0,15.6-12.691,28.291-28.291,28.291    c-15.6,0-28.291-12.691-28.291-28.291c0-5.716-4.634-10.35-10.35-10.35s-10.35,4.634-10.35,10.35    c0,15.6-12.691,28.291-28.291,28.291c-15.6,0-28.291-12.691-28.291-28.291c0-5.716-4.634-10.35-10.35-10.35    c-5.716,0-10.35,4.634-10.35,10.35c0,15.6-12.691,28.291-28.291,28.291c-15.6,0-28.291-12.691-28.291-28.291V423.89    c0-58.213,47.361-105.574,105.574-105.574s105.574,47.361,105.574,105.574V463.008z M438.857,463.008    c0,15.6-12.691,28.291-28.291,28.291s-28.291-12.691-28.291-28.291V423.89c0-69.628-56.647-126.275-126.275-126.275    S129.725,354.263,129.725,423.89v39.118c0,15.6-12.691,28.291-28.291,28.291s-28.291-12.691-28.291-28.291v-259.45    c0-15.92,2.052-31.726,6.076-46.897l0.172-0.629C100.778,76.352,173.402,20.701,256,20.701s155.222,55.651,176.608,135.332    c4.147,15.448,6.249,31.438,6.249,47.525V463.008z" fill="#FFFFFF"/>
	</g>
</g>
<g>
	<g>
		<path d="M316.722,357.789H195.278c-5.716,0-10.35,4.634-10.35,10.35c0,19.128,7.495,37.074,21.104,50.532    c13.395,13.246,31.14,20.539,49.969,20.539s36.573-7.295,49.968-20.539c0.004-0.004,0.007-0.008,0.011-0.012    c13.602-13.457,21.094-31.399,21.094-50.521C327.073,362.423,322.439,357.789,316.722,357.789z M256,418.511    c-8.563,0-16.809-2.129-24.129-6.137c0.178-0.068,0.357-0.135,0.537-0.201c0.538-0.199,1.085-0.392,1.638-0.578    c14.486-4.854,31.186-4.723,45.546,0.578c0.179,0.066,0.357,0.133,0.535,0.201C272.809,416.382,264.562,418.511,256,418.511z     M296.968,397.46c-0.286-0.166-0.582-0.32-0.874-0.482c-0.264-0.146-0.527-0.294-0.794-0.439    c-23.291-12.516-55.257-12.531-78.602,0c-0.268,0.143-0.531,0.291-0.796,0.439c-0.29,0.161-0.586,0.316-0.872,0.482    c-4.095-5.693-6.925-12.129-8.345-18.97h98.628C303.893,385.33,301.063,391.767,296.968,397.46z" fill="#FFFFFF"/>
	</g>
</g>
<g>
</g>
<g>
</g>
<g>
</g>
<g>
</g>
<g>
</g>
<g>
</g>
<g>
</g>
<g>
</g>
<g>
</g>
<g>
</g>
<g>
</g>
<g>
</g>
<g>
</g>
<g>
</g>
<g>
</g>
</svg>
