<?xml version="1.0" encoding="iso-8859-1"?>
<!-- Generator: Adobe Illustrator 19.0.0, SVG Export Plug-In . SVG Version: 6.00 Build 0)  -->
<svg xmlns="http://www.w3.org/2000/svg" xmlns:xlink="http://www.w3.org/1999/xlink" version="1.1" id="Capa_1" x="0px" y="0px" viewBox="0 0 512.001 512.001" style="enable-background:new 0 0 512.001 512.001;" xml:space="preserve" width="512px" height="512px">
<g>
	<g>
		<path d="M398.896,337.417c41.875-39.177,71.787-92.259,81.903-152.956c1.69-10.139-7.12-18.956-17.262-17.262    c-49.639,8.273-95.584,30.129-133.07,62.755c0.343-5.874,0.534-11.857,0.534-17.958c0-110.992-59.996-201.567-62.55-205.368    c-5.936-8.835-18.963-8.839-24.901,0C240.996,10.429,181,101.004,181,211.996c0,6.101,0.191,12.084,0.534,17.958    c-37.486-32.625-83.431-54.482-133.07-62.755c-10.141-1.692-18.952,7.119-17.262,17.262    c10.1,60.601,39.968,113.722,81.903,152.956c-44.323,12.449-75.824,42.161-77.479,43.746c-6.168,5.905-6.166,15.768,0,21.672    C37.723,404.842,87.715,452,151,452c36.737,0,68.992-15.891,90.001-29.616v74.617c0,8.284,6.716,15,15,15c8.284,0,15-6.716,15-15    v-74.617C292.011,436.109,324.266,452,361.003,452c63.285,0,113.277-47.158,115.375-49.165c6.165-5.905,6.164-15.768-0.003-21.672    C474.72,379.579,443.217,349.867,398.896,337.417z M323.486,279.791c32.052-38.341,75.036-65.591,123.012-78.274    c-13.707,52.127-44.274,97.756-87.735,130.508c-21.118,0.37-40.694,5.917-57.424,13.168    C309.691,327.073,317.847,305.054,323.486,279.791z M65.501,201.516c47.975,12.684,90.958,39.935,123.012,78.275    c5.639,25.263,13.795,47.283,22.147,65.402c-16.73-7.251-36.305-12.798-57.424-13.168    C109.775,299.273,79.208,253.643,65.501,201.516z M69.806,391.972c53.642-38.979,106.376-40.508,162.383,0.056    C176.362,432.593,123.584,430.916,69.806,391.972z M255.999,365.885c-63.094-99.986-56.283-214.746,0-321.004    C311.826,150.273,319.434,265.481,255.999,365.885z M279.809,391.972c53.642-38.979,106.376-40.508,162.383,0.056    C386.365,432.593,333.587,430.916,279.809,391.972z" fill="#FFFFFF"/>
	</g>
</g>
<g>
</g>
<g>
</g>
<g>
</g>
<g>
</g>
<g>
</g>
<g>
</g>
<g>
</g>
<g>
</g>
<g>
</g>
<g>
</g>
<g>
</g>
<g>
</g>
<g>
</g>
<g>
</g>
<g>
</g>
</svg>
