<?xml version="1.0" encoding="iso-8859-1"?>
<!-- Generator: Adobe Illustrator 18.0.0, SVG Export Plug-In . SVG Version: 6.00 Build 0)  -->
<!DOCTYPE svg PUBLIC "-//W3C//DTD SVG 1.1//EN" "http://www.w3.org/Graphics/SVG/1.1/DTD/svg11.dtd">
<svg xmlns="http://www.w3.org/2000/svg" xmlns:xlink="http://www.w3.org/1999/xlink" version="1.1" id="Capa_1" x="0px" y="0px" viewBox="0 0 459.635 459.635" style="enable-background:new 0 0 459.635 459.635;" xml:space="preserve" width="512px" height="512px">
<g>
	<path d="M101.639,247.568c3.818,0,7.076-2.971,7.463-6.76c0.304-2.977-1.291-5.94-3.929-7.345c-2.978-1.585-6.76-0.959-9.05,1.53   C91.796,239.698,95.25,247.568,101.639,247.568z" fill="#FFFFFF"/>
	<path d="M457.438,207.397l-2.806-2.806c-23.437-23.437-57.599-29.741-86.828-18.953c3.354-9.05,5.119-18.715,5.119-28.654   c0-21.99-8.563-42.665-24.112-58.214l-2.806-2.806c-1.407-1.407-3.315-2.197-5.305-2.197s-3.896,0.791-5.304,2.198l-2.804,2.805   c-28.948,28.949-31.778,74.265-8.512,106.427H26.552c-7.624,0-14.885,3.284-19.92,9.009c-5.054,5.746-7.392,13.401-6.414,21.002   c11.167,86.768,85.657,152.199,173.271,152.199c7.843,0,15.726-0.532,23.492-1.575c13.19,13.441,31.542,21.8,51.816,21.8   c4.143,0,7.5-3.358,7.5-7.5c0-10.639-2.266-20.896-6.524-30.22c55.223-26.797,92.111-80.396,97.688-141.128   c14.486,10.728,31.719,16.1,48.955,16.1c21.083,0,42.165-8.025,58.215-24.075l2.806-2.806   C460.367,215.075,460.367,210.326,457.438,207.397z M340.703,112.011c22.922,25.505,22.922,64.44-0.001,89.945   C317.782,176.453,317.784,137.517,340.703,112.011z M227.842,342.47c-3.287-2.522-7.995-1.902-10.516,1.385   c-2.521,3.286-1.901,7.994,1.385,10.516c12.191,9.354,19.966,22.794,22.034,37.7c-27.983-3.93-49.585-28.029-49.585-57.079   c0-4.142-3.358-7.5-7.5-7.5s-7.5,3.358-7.5,7.5c0,13.467,3.697,26.082,10.11,36.906c-4.252,0.337-8.522,0.509-12.779,0.509   c-69.499,0-129.954-45.035-151.402-108.762c81.182,1.558,161.954,21.809,234.228,58.827l21.631,11.079   c-10.693,9.241-22.699,17.151-35.834,23.401C238.116,351.567,233.338,346.687,227.842,342.47z M289.428,322.578l-26.274-13.457   c-75.644-38.744-160.342-59.622-245.323-60.542c-1.149-5.005-2.069-10.103-2.736-15.286c-0.434-3.375,0.56-6.635,2.8-9.181   c2.221-2.525,5.295-3.916,8.657-3.916h306.473C331.213,259.1,315.347,295.223,289.428,322.578z M351.445,212.7   c25.507-22.922,64.441-22.921,89.946,0C415.885,235.621,376.951,235.622,351.445,212.7z" fill="#FFFFFF"/>
	<path d="M85.492,119.806c14.649,0,28.634,4.517,40.443,13.062c1.329,0.962,2.867,1.425,4.391,1.425   c2.324,0,4.616-1.077,6.082-3.104c2.429-3.355,1.677-8.044-1.679-10.473c-14.383-10.409-31.409-15.911-49.237-15.911   c-4.142,0-7.5,3.358-7.5,7.5S81.35,119.806,85.492,119.806z" fill="#FFFFFF"/>
	<path d="M140.129,134.705c-3.212,2.616-3.695,7.34-1.08,10.552c9.972,12.246,15.463,27.718,15.463,43.568   c0,4.142,3.358,7.5,7.5,7.5s7.5-3.358,7.5-7.5c0-19.29-6.688-38.126-18.832-53.04C148.065,132.574,143.342,132.09,140.129,134.705z   " fill="#FFFFFF"/>
	<path d="M108.779,66.516c20.209,7.681,37.132,22.27,47.649,41.08c1.374,2.458,3.925,3.841,6.553,3.841   c1.239,0,2.496-0.308,3.653-0.955c3.615-2.021,4.908-6.591,2.886-10.207c-12.235-21.882-31.915-38.851-55.413-47.781   c-3.873-1.473-8.204,0.474-9.675,4.346C102.961,60.713,104.907,65.045,108.779,66.516z" fill="#FFFFFF"/>
	<path d="M164.761,127.782c0.656,2.344,1.226,4.74,1.693,7.124c0.702,3.577,3.838,6.058,7.352,6.058   c0.479,0,0.964-0.046,1.452-0.142c4.064-0.797,6.713-4.738,5.917-8.803c-0.543-2.771-1.206-5.557-1.969-8.282   c-1.117-3.989-5.256-6.318-9.245-5.2C165.972,119.654,163.644,123.793,164.761,127.782z" fill="#FFFFFF"/>
	<path d="M255.283,120.083c0.213,0,0.427-0.009,0.643-0.027c1.96-0.166,3.956-0.25,5.934-0.25c4.143,0,7.5-3.358,7.5-7.5   s-3.357-7.5-7.5-7.5c-2.399,0-4.822,0.103-7.201,0.304c-4.128,0.35-7.189,3.98-6.84,8.107   C248.15,117.129,251.428,120.083,255.283,120.083z" fill="#FFFFFF"/>
	<path d="M185.34,196.325c4.142,0,7.5-3.358,7.5-7.5c0-26.404,14.682-50.103,38.315-61.847c3.71-1.843,5.223-6.344,3.379-10.054   c-1.843-3.71-6.345-5.223-10.054-3.379c-28.769,14.295-46.641,43.141-46.641,75.279C177.84,192.967,181.198,196.325,185.34,196.325   z" fill="#FFFFFF"/>
</g>
<g>
</g>
<g>
</g>
<g>
</g>
<g>
</g>
<g>
</g>
<g>
</g>
<g>
</g>
<g>
</g>
<g>
</g>
<g>
</g>
<g>
</g>
<g>
</g>
<g>
</g>
<g>
</g>
<g>
</g>
</svg>
