<?xml version="1.0" encoding="iso-8859-1"?>
<!DOCTYPE svg PUBLIC "-//W3C//DTD SVG 1.1//EN" "http://www.w3.org/Graphics/SVG/1.1/DTD/svg11.dtd">
<svg xmlns="http://www.w3.org/2000/svg" xmlns:xlink="http://www.w3.org/1999/xlink" version="1.1" viewBox="0 0 228.955 228.955" enable-background="new 0 0 228.955 228.955" width="512px" height="512px">
  <path d="m202.7,73.522c-25.574,0.003-39.592,14.019-47.969,22.395-7.015,7.017-7.601,7.017-10.851,7.017-3.243,0-3.828,0-10.849-7.02-8.374-8.374-22.391-22.389-47.968-22.389-25.573,0-39.589,14.015-47.967,22.392-7.014,7.014-7.6,7.014-10.847,7.014-14.473-0.001-26.249,11.775-26.249,26.249 0,14.474 11.776,26.25 26.252,26.25 25.574,0 39.593-14.016 47.971-22.392 7.014-7.014 7.599-7.014 10.843-7.014 3.246,0 3.831,0 10.849,7.017 8.374,8.375 22.39,22.392 47.966,22.392h0.006c25.574,0 39.593-14.017 47.969-22.392 6.76-6.758 7.454-7.019 10.85-7.02 14.475,0 26.25-11.776 26.25-26.25-0.001-14.473-11.778-26.249-26.256-26.249zm.003,37.5c-10.043,0.003-14.582,4.542-21.454,11.413-7.597,7.596-18,17.999-37.362,17.999h-0.006c-19.362,0-29.764-10.403-37.359-17.999-6.872-6.871-11.412-11.41-21.455-11.41-10.042,0-14.581,4.538-21.45,11.408-7.598,7.596-18.003,17.998-37.364,17.998-6.205,0-11.252-5.047-11.252-11.25 0-6.203 5.047-11.25 11.25-11.25 10.046,0 14.584-4.538 21.456-11.41 7.596-7.595 17.999-17.996 37.358-17.996 19.364,0 29.767,10.401 37.364,17.998 6.872,6.871 11.411,11.411 21.452,11.411 10.05,0 14.589-4.54 21.458-11.411 7.597-7.596 18.001-17.999 37.362-18 6.205,0 11.254,5.047 11.254,11.25 2.84217e-14,6.202-5.047,11.249-11.252,11.249z" fill="#FFFFFF"/>
</svg>
